<svg alt="Dora Factory logo" aria-label="Dora Factory logo" fill="#FF8F66" viewBox="0 0 56 56" xmlns="http://www.w3.org/2000/svg"><path d="M33.118 16.307c0 2.598-2.291 4.705-5.118 4.705s-5.119-2.107-5.119-4.705 2.292-4.704 5.119-4.704 5.118 2.106 5.118 4.704M37.384 33.478c0 3.637-4.202 3.764-9.384 3.764s-9.384-.127-9.384-3.764 2.346-9.644 9.384-9.644 9.384 6.007 9.384 9.644M14.35 27.833c2.828 0 5.12-2.106 5.12-4.704 0-2.599-2.292-4.705-5.12-4.705-2.826 0-5.118 2.106-5.118 4.704 0 2.599 2.292 4.705 5.119 4.705M46.768 23.129c0 2.598-2.292 4.704-5.119 4.704s-5.118-2.106-5.118-4.704c0-2.599 2.291-4.705 5.118-4.705s5.119 2.106 5.119 4.704"></path><path clip-rule="evenodd" d="M28 52.541c15.12 0 27.378-10.995 27.378-24.56 0-7.65-3.9-14.484-10.013-18.988-4.631-3.467-10.71-5.57-17.365-5.57-6.656 0-12.734 2.103-17.365 5.57C4.522 13.498.622 20.331.622 27.982c0 13.563 12.258 24.56 27.378 24.56m0-5.435c14.119 0 25.276-9.7 25.276-21.339S42.12 4.43 28 4.43s-25.276 9.7-25.276 21.338S13.88 47.106 28 47.106" fill-rule="evenodd"></path></svg>