<?xml version="1.0" standalone="no"?>
<!DOCTYPE svg PUBLIC "-//W3C//DTD SVG 20010904//EN"
 "http://www.w3.org/TR/2001/REC-SVG-20010904/DTD/svg10.dtd">
<svg version="1.0" xmlns="http://www.w3.org/2000/svg"
 width="1270.000000pt" height="1212.000000pt" viewBox="0 0 1270.000000 1212.000000"
 preserveAspectRatio="xMidYMid meet">

<g transform="translate(0.000000,1212.000000) scale(0.100000,-0.100000)"
fill="#000000" stroke="none">
<path d="M3393 10296 c-94 -79 -95 -278 -2 -756 17 -85 86 -375 154 -645 157
-618 165 -662 220 -1115 25 -206 52 -424 61 -484 15 -108 15 -108 -6 -123 -12
-9 -65 -49 -118 -91 -477 -371 -786 -760 -873 -1099 -10 -42 -19 -86 -19 -97
0 -15 157 136 535 514 400 400 535 529 535 513 0 -38 59 -320 101 -481 214
-832 621 -1404 1386 -1948 187 -134 411 -274 533 -334 100 -50 386 -166 480
-195 82 -25 305 -32 393 -11 92 22 175 66 224 119 54 58 73 105 73 177 0 164
-111 335 -380 586 -155 144 -310 298 -310 306 0 5 12 8 28 8 44 0 445 66 606
100 82 18 216 52 299 76 166 49 219 53 275 25 67 -34 193 -150 492 -451 162
-164 326 -321 365 -349 143 -107 260 -145 425 -139 99 3 112 6 182 41 147 72
209 158 216 297 5 109 -12 180 -79 320 -230 482 -829 1180 -1444 1681 -202
165 -204 170 -391 874 -37 140 -64 309 -64 403 0 110 16 183 84 390 87 265
222 830 282 1177 46 266 38 641 -16 708 -15 18 -28 22 -77 21 -142 -3 -453
-178 -962 -543 l-184 -132 -86 39 c-171 79 -417 142 -638 163 -273 26 -640
-22 -1002 -131 -74 -23 -140 -39 -146 -36 -7 2 -116 80 -241 173 -314 230
-488 346 -623 412 -100 49 -123 56 -186 59 -65 4 -74 2 -102 -22z m1944 -1104
c51 -26 99 -74 117 -116 20 -48 52 -71 98 -71 35 0 44 6 71 40 48 62 114 120
165 146 37 19 62 24 117 24 82 -1 136 -24 201 -86 l40 -39 100 -4 c124 -4 179
-23 248 -87 62 -57 90 -115 107 -220 24 -152 -8 -281 -89 -368 -58 -62 -132
-97 -247 -117 -108 -19 -130 -27 -150 -58 -42 -64 5 -116 112 -123 129 -10
224 32 314 139 94 109 154 166 182 174 76 19 119 -55 125 -216 6 -133 -10
-223 -51 -291 -64 -107 -200 -185 -305 -177 -73 6 -98 31 -106 109 -6 52 -10
60 -31 65 -30 7 -63 0 -90 -20 -18 -13 -21 -30 -26 -143 -7 -150 -23 -197 -87
-255 -75 -68 -185 -109 -343 -128 -102 -12 -157 -5 -234 29 -38 17 -95 72 -95
91 0 5 16 25 35 46 136 143 0 413 -248 494 -21 6 -49 9 -61 6 -30 -7 -50 -55
-41 -95 7 -31 56 -81 79 -81 27 0 97 -62 126 -112 34 -60 40 -126 16 -181 -20
-48 -82 -104 -154 -139 -165 -81 -352 -2 -442 187 -17 35 -35 67 -41 71 -6 3
-57 10 -113 15 -223 19 -303 70 -351 220 -30 96 -28 134 12 173 29 29 49 33
72 12 37 -34 120 -66 168 -66 59 0 68 -7 121 -87 54 -80 86 -105 131 -101 61
5 106 98 64 132 -10 8 -33 27 -51 41 -43 36 -64 78 -64 130 0 53 13 77 63 125
45 42 50 74 18 114 -16 21 -29 26 -63 26 -23 0 -52 -7 -64 -16 -29 -20 -58
-77 -67 -133 -10 -60 -37 -85 -85 -78 -120 16 -217 124 -235 262 -8 63 14 175
48 241 29 57 106 133 166 164 46 23 179 60 217 60 23 0 23 -3 22 -82 -1 -69 3
-94 25 -147 31 -74 79 -140 124 -171 126 -86 341 -106 435 -39 37 27 38 71 2
104 -29 27 -50 32 -166 39 -44 2 -95 12 -120 24 -136 60 -199 198 -152 335 27
80 138 187 232 222 50 20 147 13 199 -13z"/>
<path d="M5837 9050 c-36 -29 -50 -80 -45 -164 9 -133 89 -256 191 -294 105
-39 239 -36 297 7 31 22 38 73 15 107 -15 23 -19 24 -79 18 -84 -9 -154 9
-201 49 -45 39 -57 86 -49 183 6 69 5 72 -21 92 -35 27 -75 28 -108 2z"/>
<path d="M5702 8575 c-52 -23 -57 -54 -23 -133 16 -37 32 -84 36 -105 11 -57
-13 -159 -51 -223 -39 -65 -37 -87 7 -110 63 -32 129 16 169 123 19 51 21 72
17 173 -5 134 -26 207 -73 256 -35 38 -37 39 -82 19z"/>
<path d="M9453 3308 l-122 -20 5 -322 c2 -176 7 -518 10 -758 l6 -438 149 0
149 0 0 220 c0 143 4 220 10 220 6 0 48 -38 95 -85 80 -81 192 -235 232 -319
l18 -39 80 7 c44 3 122 6 173 6 50 0 92 4 92 9 0 5 -31 56 -69 113 -56 86
-143 198 -338 437 l-21 27 204 234 c112 128 204 235 204 237 0 1 -76 3 -168 3
l-168 0 -169 -189 -170 -190 -6 187 c-4 103 -7 298 -8 435 l-1 247 -32 -1
c-18 -1 -88 -10 -155 -21z"/>
<path d="M5733 3163 l-43 -4 0 -700 0 -699 160 0 160 0 0 280 0 280 270 0 270
0 0 -280 0 -280 160 0 160 0 0 668 c0 367 -3 684 -6 705 l-7 37 -158 0 -159 0
0 -285 0 -285 -265 0 -265 0 0 285 0 285 -117 -2 c-65 -1 -137 -3 -160 -5z"/>
<path d="M1098 3146 c-47 -7 -98 -16 -112 -20 l-26 -6 0 -699 0 -698 38 -7
c20 -3 99 -11 174 -17 331 -27 633 43 813 188 73 59 153 176 182 264 49 148
54 345 13 504 -62 241 -231 402 -498 472 -85 22 -121 26 -297 29 -132 2 -230
-1 -287 -10z m443 -276 c224 -43 350 -221 336 -475 -11 -200 -105 -325 -296
-391 -66 -23 -216 -42 -273 -36 l-28 3 0 449 c0 419 1 449 18 453 34 9 190 7
243 -3z"/>
<path d="M7455 2853 c-91 -11 -165 -26 -201 -42 l-41 -18 13 -99 c7 -55 13
-106 14 -115 0 -15 6 -15 63 4 91 30 316 31 367 2 42 -25 67 -66 79 -128 l8
-47 -159 0 c-195 0 -272 -15 -358 -71 -103 -67 -148 -165 -137 -304 7 -97 38
-165 98 -219 79 -71 105 -76 389 -76 246 0 329 8 403 37 l39 16 -7 416 c-7
407 -8 417 -30 461 -31 60 -88 114 -155 144 -80 36 -259 55 -385 39z m305
-763 l0 -120 -141 0 c-145 0 -170 5 -201 44 -22 26 -23 97 -3 136 26 51 55 59
208 60 l137 0 0 -120z"/>
<path d="M10760 2846 c-72 -21 -123 -51 -169 -101 -60 -65 -84 -124 -89 -220
-7 -139 43 -217 185 -288 38 -19 93 -42 123 -52 81 -26 124 -50 154 -86 37
-43 32 -78 -14 -102 -30 -15 -54 -18 -160 -14 -105 3 -137 8 -198 31 -41 15
-75 26 -76 24 -5 -5 -56 -216 -56 -228 0 -19 81 -48 163 -59 43 -6 135 -11
205 -11 252 1 377 53 438 185 33 69 34 208 3 272 -40 83 -143 154 -316 218
-83 30 -127 58 -156 97 -17 23 -19 32 -9 52 22 48 57 61 162 60 52 -1 126 -9
164 -18 38 -9 72 -13 76 -9 4 5 19 53 33 108 20 76 24 101 14 107 -59 37 -387
61 -477 34z"/>
<path d="M4820 2844 c-66 -6 -191 -34 -222 -50 -22 -12 -27 -20 -23 -42 6 -33
25 -181 25 -191 0 -4 42 4 93 17 119 30 281 29 337 -3 41 -24 80 -93 80 -142
l0 -33 -148 0 c-167 0 -244 -11 -317 -46 -71 -34 -116 -74 -150 -135 -28 -50
-30 -61 -30 -159 0 -92 3 -112 26 -160 34 -72 90 -125 159 -151 52 -19 72 -20
340 -17 269 4 288 5 342 27 l58 22 -6 407 c-6 451 -8 463 -72 534 -44 48 -106
86 -173 103 -54 14 -243 25 -319 19z m300 -764 l0 -120 -140 0 c-151 0 -188 9
-211 52 -16 29 -13 91 5 127 27 52 56 60 209 61 l137 0 0 -120z"/>
<path d="M8640 2827 c-189 -67 -327 -215 -371 -397 -22 -89 -17 -262 9 -346
72 -234 289 -367 571 -351 91 5 252 35 266 49 2 2 -5 58 -17 125 l-21 120 -41
-17 c-102 -45 -238 -50 -312 -12 -85 44 -127 111 -144 230 -25 178 42 308 179
349 61 17 183 20 251 4 24 -5 46 -9 47 -7 2 1 16 52 32 113 l29 111 -57 15
c-162 45 -319 50 -421 14z"/>
<path d="M4020 2834 c-81 -10 -170 -26 -242 -46 l-78 -20 0 -227 c0 -125 3
-357 7 -514 l6 -287 144 0 144 0 -1 413 -2 412 29 6 c56 13 189 9 242 -7 30
-8 57 -12 62 -7 8 8 60 225 55 230 -1 2 -36 12 -77 22 -76 19 -225 32 -289 25z"/>
<path d="M2770 2808 c-133 -47 -233 -134 -296 -260 -45 -89 -64 -173 -64 -283
0 -363 285 -618 621 -555 181 34 341 195 394 395 20 77 20 243 0 320 -41 160
-142 288 -282 357 -81 40 -88 42 -196 45 -97 3 -121 1 -177 -19z m243 -252
c79 -34 116 -111 124 -256 12 -214 -65 -340 -207 -340 -96 0 -161 50 -196 152
-26 73 -26 252 -1 324 19 55 65 106 112 122 43 15 131 14 168 -2z"/>
</g>
</svg>
